<svg width="177" height="71" viewBox="0 0 177 71" fill="none" xmlns="http://www.w3.org/2000/svg">
<path fill-rule="evenodd" clip-rule="evenodd" d="M28.1735 29.7923C30.8605 29.7923 33.4369 30.2483 35.819 31.0794L35.7657 31.0721C34.184 30.6344 32.5108 30.4027 30.7842 30.4027C20.7261 30.4027 12.5736 38.2691 12.5736 47.9744C12.5736 52.7185 14.5288 57.0287 17.6961 60.1914C17.7685 60.2502 17.8295 60.3201 17.9019 60.39L17.9095 60.3973C17.9095 60.3973 17.7494 60.287 17.4826 60.0884C7.13103 55.3517 0 45.4148 0 33.9259C0 32.9476 0.0533591 31.9768 0.152454 31.0243C1.26537 36.2501 3.66651 40.8472 7.31016 44.3666C9.95142 35.9412 18.2906 29.7886 28.1735 29.7886V29.7923ZM6.94808 30.377C8.91474 30.377 10.5041 31.9142 10.5041 33.8082C10.5041 35.7022 8.91092 37.2505 6.94808 37.2505C4.98524 37.2505 3.38066 35.7059 3.38066 33.8082C3.38066 31.9106 4.97381 30.377 6.94808 30.377Z" fill="#2439BF"/>
<path fill-rule="evenodd" clip-rule="evenodd" d="M32.7623 26.6919C29.6065 26.6919 26.5803 27.2325 23.7904 28.2107L23.8514 28.1924C25.7113 27.6849 27.6665 27.4127 29.6942 27.4127C41.4941 27.4127 51.053 36.6362 51.053 48.0221C51.053 53.59 48.7661 58.643 45.0425 62.35C44.97 62.4273 44.89 62.5045 44.81 62.5817L44.8023 62.5891C44.8023 62.5891 44.9891 62.4604 45.3016 62.2287C57.4408 56.6755 65.799 45.0248 65.799 31.5463C65.799 30.3952 65.7381 29.2625 65.6199 28.1482C64.3202 34.2751 61.5037 39.6628 57.2273 43.8002C54.1325 33.9147 44.3526 26.6919 32.7661 26.6919H32.7623ZM57.6618 27.3796C55.3598 27.3796 53.4808 29.1816 53.4808 31.4139C53.4808 33.6463 55.356 35.4483 57.6618 35.4483C59.9677 35.4483 61.8429 33.6389 61.8429 31.4139C61.8429 29.189 59.9677 27.3796 57.6618 27.3796Z" fill="#00348F"/>
<path fill-rule="evenodd" clip-rule="evenodd" d="M21.1872 41.8474C18.6259 41.8474 16.1714 42.285 13.9037 43.0831L13.9494 43.0647C15.4625 42.6528 17.0519 42.4285 18.6984 42.4285C28.2763 42.4285 36.0476 49.9198 36.0476 59.169C36.0476 63.6924 34.1877 67.793 31.1653 70.8049C31.1043 70.8748 31.0395 70.9337 30.9709 70.9925V70.9999H30.9633C30.9633 70.9999 31.1157 70.8969 31.3711 70.7093C41.231 66.1969 48.0267 56.7307 48.0267 45.7935C48.0267 44.8594 47.9733 43.94 47.8742 43.0316C46.8261 48.0074 44.5317 52.3838 41.0633 55.7378C38.5478 47.7169 30.5974 41.8474 21.1872 41.8474ZM41.4102 42.4064C39.535 42.4064 38.0219 43.8738 38.0219 45.6758C38.0219 47.4778 39.535 48.9526 41.4102 48.9526C43.2853 48.9526 44.8061 47.4852 44.8061 45.6758C44.8061 43.8664 43.2853 42.4064 41.4102 42.4064Z" fill="#005CFF"/>
<path fill-rule="evenodd" clip-rule="evenodd" d="M65.3186 24.9673C62.0446 10.735 48.8231 0 33.1279 0C16.4381 0 2.53809 12.1324 0.43042 27.7071L1.03642 30.5646C2.14552 14.442 16.1522 1.58873 33.1279 1.58873C48.9488 1.58873 62.1971 12.7613 64.8117 27.3394L65.3186 24.971V24.9673Z" fill="#C5A25D"/>
<path d="M91.3497 46.2059H88.8381L80.8647 35.7542H79.6222V46.2059H77.5603V24.2874H81.7337C84.1959 24.2874 86.0405 24.7802 87.264 25.7694C88.4874 26.7587 89.1011 28.2555 89.1011 30.2598C89.1011 31.9662 88.5751 33.3085 87.527 34.2868C86.4788 35.265 85.0305 35.7542 83.1897 35.7542L91.3497 46.2059ZM79.6184 26.0232V34.1213H81.6994C83.6242 34.1213 84.9657 33.8234 85.7242 33.2313C86.4865 32.6392 86.8638 31.6279 86.8638 30.201C86.8638 28.6931 86.4712 27.6193 85.6861 26.983C84.9009 26.3431 83.5708 26.0232 81.6994 26.0232H79.6184Z" fill="white"/>
<path d="M92.7792 38.63H99.5443V40.5608H92.7792V38.63Z" fill="white"/>
<path d="M108.169 47.0592L100.333 24.2875H102.49L108.169 41.7892L114.222 23.4196L120.507 41.6385L125.968 24.2875H128.11L120.507 47.0592L114.222 28.4505L108.169 47.0592Z" fill="white"/>
<path d="M135.539 46.7908C134.555 46.7908 133.614 46.6032 132.714 46.2281C131.815 45.853 130.999 45.316 130.264 44.6173C129.57 43.959 129.044 43.2014 128.682 42.3409C128.32 41.484 128.141 40.5646 128.141 39.5863C128.141 38.6081 128.328 37.6997 128.697 36.8318C129.067 35.9639 129.604 35.1953 130.294 34.5259C130.999 33.8492 131.8 33.327 132.699 32.9703C133.599 32.6099 134.548 32.4297 135.539 32.4297C136.53 32.4297 137.517 32.6099 138.432 32.9703C139.346 33.3307 140.162 33.8492 140.875 34.5259C141.587 35.2063 142.132 35.9786 142.51 36.8465C142.887 37.7144 143.078 38.6265 143.078 39.5863C143.078 40.5462 142.891 41.4545 142.521 42.3188C142.151 43.183 141.61 43.948 140.909 44.6173C140.185 45.316 139.361 45.853 138.435 46.2281C137.509 46.6032 136.545 46.7908 135.542 46.7908H135.539ZM135.6 45.0696C137.109 45.0696 138.39 44.5437 139.442 43.4919C140.49 42.4401 141.016 41.1493 141.016 39.6231C141.016 38.0969 140.493 36.7803 139.449 35.7322C138.405 34.6841 137.12 34.1618 135.6 34.1618C134.079 34.1618 132.814 34.6841 131.769 35.7322C130.725 36.7803 130.203 38.0785 130.203 39.6231C130.203 41.1677 130.725 42.4401 131.769 43.4919C132.814 44.5437 134.09 45.0696 135.6 45.0696Z" fill="white"/>
<path d="M148.928 35.5924C149.633 34.445 150.323 33.6323 151.002 33.1505C151.68 32.6724 152.469 32.4333 153.368 32.4333C153.639 32.4333 153.91 32.4591 154.184 32.5069C154.458 32.5547 154.729 32.6283 155 32.7165L154.378 34.4524C154.173 34.3935 153.955 34.342 153.734 34.3016C153.513 34.2611 153.296 34.2427 153.09 34.2427C151.943 34.2427 150.963 34.7613 150.152 35.7984C149.34 36.8355 148.932 38.13 148.932 39.6746V46.2023H147.022V32.9225H148.932V35.5887L148.928 35.5924Z" fill="white"/>
<path d="M159.123 46.2059H157.153V23.0001H159.123V46.2059Z" fill="white"/>
<path d="M174.529 46.206V43.7824C174.071 44.7717 173.439 45.5182 172.619 46.0294C171.804 46.5369 170.839 46.7944 169.734 46.7944C167.76 46.7944 166.167 46.1398 164.962 44.8342C163.758 43.5286 163.156 41.8002 163.156 39.6561C163.156 37.5121 163.75 35.7946 164.939 34.4523C166.129 33.11 167.665 32.437 169.547 32.437C170.717 32.437 171.724 32.6834 172.566 33.1798C173.408 33.6726 174.064 34.4008 174.529 35.357V23.0076H176.469V46.2133H174.529V46.206ZM165.282 39.7076C165.282 41.4251 165.683 42.7453 166.487 43.6758C167.287 44.6025 168.434 45.0696 169.925 45.0696C171.415 45.0696 172.494 44.5621 173.324 43.5507C174.151 42.5394 174.567 41.1419 174.567 39.3656C174.567 37.7401 174.159 36.4603 173.343 35.5262C172.528 34.5921 171.4 34.125 169.959 34.125C168.518 34.125 167.383 34.6215 166.544 35.6144C165.706 36.6074 165.286 37.9718 165.286 39.7076H165.282Z" fill="white"/>
</svg>
