<svg width="130" height="54" viewBox="0 0 130 54" fill="none" xmlns="http://www.w3.org/2000/svg">
<path fill-rule="evenodd" clip-rule="evenodd" d="M20.6759 22.6475C22.6478 22.6475 24.5386 22.9942 26.2868 23.6261L26.2476 23.6205C25.0868 23.2878 23.8589 23.1116 22.5918 23.1116C15.2104 23.1116 9.22749 29.0924 9.22749 36.4713C9.22749 40.0783 10.6624 43.3553 12.9867 45.7599C13.0399 45.8046 13.0846 45.8578 13.1378 45.9109L13.1434 45.9165C13.1434 45.9165 13.0259 45.8326 12.8301 45.6816C5.2333 42.0803 0 34.5252 0 25.7903C0 25.0465 0.039159 24.3083 0.111882 23.5841C0.928623 27.5574 2.69077 31.0525 5.36476 33.7283C7.30312 27.3225 13.4231 22.6447 20.6759 22.6447V22.6475ZM5.09904 23.092C6.54232 23.092 7.70869 24.2608 7.70869 25.7008C7.70869 27.1408 6.53952 28.3179 5.09904 28.3179C3.65855 28.3179 2.48099 27.1436 2.48099 25.7008C2.48099 24.258 3.65016 23.092 5.09904 23.092Z" fill="#2439BF"/>
<path fill-rule="evenodd" clip-rule="evenodd" d="M24.0435 20.2904C21.7275 20.2904 19.5067 20.7014 17.4592 21.4452L17.504 21.4312C18.8689 21.0453 20.3038 20.8384 21.7919 20.8384C30.4516 20.8384 37.4666 27.851 37.4666 36.5077C37.4666 40.741 35.7883 44.5828 33.0556 47.4013C33.0025 47.46 32.9437 47.5187 32.885 47.5774L32.8794 47.583C32.8794 47.583 33.0165 47.4852 33.2458 47.309C42.1545 43.0869 48.2884 34.2289 48.2884 23.9812C48.2884 23.1061 48.2437 22.2449 48.1569 21.3977C47.2031 26.0559 45.1361 30.1522 41.9978 33.2978C39.7266 25.7819 32.5494 20.2904 24.0463 20.2904H24.0435ZM42.3167 20.8133C40.6273 20.8133 39.2483 22.1834 39.2483 23.8806C39.2483 25.5778 40.6245 26.9479 42.3167 26.9479C44.0089 26.9479 45.3851 25.5722 45.3851 23.8806C45.3851 22.1889 44.0089 20.8133 42.3167 20.8133Z" fill="#00348F"/>
<path fill-rule="evenodd" clip-rule="evenodd" d="M15.5488 31.8132C13.6692 31.8132 11.8679 32.1459 10.2036 32.7527L10.2372 32.7387C11.3476 32.4255 12.514 32.255 13.7223 32.255C20.7513 32.255 26.4545 37.9506 26.4545 44.9827C26.4545 48.4219 25.0896 51.5396 22.8715 53.8296C22.8267 53.8827 22.7792 53.9274 22.7288 53.9722V53.9778H22.7232C22.7232 53.9778 22.8351 53.8995 23.0225 53.7569C30.2585 50.3261 35.2457 43.1289 35.2457 34.8134C35.2457 34.1032 35.2065 33.4041 35.1338 32.7135C34.3646 36.4966 32.6808 39.824 30.1355 42.374C28.2894 36.2757 22.4547 31.8132 15.5488 31.8132ZM30.39 32.2382C29.0138 32.2382 27.9034 33.3538 27.9034 34.7239C27.9034 36.094 29.0138 37.2152 30.39 37.2152C31.7661 37.2152 32.8822 36.0996 32.8822 34.7239C32.8822 33.3482 31.7661 32.2382 30.39 32.2382Z" fill="#005CFF"/>
<path fill-rule="evenodd" clip-rule="evenodd" d="M47.936 18.9791C45.5333 8.15824 35.8303 -0.00354004 24.312 -0.00354004C12.0637 -0.00354004 1.86281 9.22075 0.31604 21.0622L0.760772 23.2347C1.57472 10.9767 11.8539 1.20437 24.312 1.20437C35.9226 1.20437 45.6452 9.69888 47.5639 20.7826L47.936 18.9819V18.9791Z" fill="#C5A25D"/>
<path d="M67.0398 32.143H65.1965L59.3451 24.1965H58.4332V32.143H56.92V15.4783H59.9828C61.7897 15.4783 63.1435 15.853 64.0414 16.6052C64.9392 17.3573 65.3895 18.4953 65.3895 20.0192C65.3895 21.3166 65.0035 22.3371 64.2343 23.0809C63.4652 23.8247 62.4023 24.1965 61.0513 24.1965L67.0398 32.143ZM58.4305 16.7981V22.9551H59.9576C61.3702 22.9551 62.3547 22.7286 62.9113 22.2784C63.4708 21.8282 63.7477 21.0593 63.7477 19.9744C63.7477 18.828 63.4596 18.0116 62.8834 17.5279C62.3072 17.0413 61.331 16.7981 59.9576 16.7981H58.4305Z" fill="#333333"/>
<path d="M68.0887 26.383H73.0535V27.8515H68.0887V26.383Z" fill="#333333"/>
<path d="M79.3833 32.7917L73.6326 15.4784H75.2157L79.3833 28.7849L83.825 14.8185L88.4374 28.6703L92.4456 15.4784H94.0175L88.4374 32.7917L83.825 18.6435L79.3833 32.7917Z" fill="#333333"/>
<path d="M99.469 32.5876C98.7474 32.5876 98.0565 32.445 97.3964 32.1598C96.7363 31.8746 96.1377 31.4664 95.5979 30.9351C95.0888 30.4346 94.7028 29.8586 94.4371 29.2043C94.1714 28.5529 94.0399 27.8538 94.0399 27.1101C94.0399 26.3663 94.177 25.6757 94.4483 25.0158C94.7196 24.3559 95.114 23.7715 95.6203 23.2627C96.1377 22.7482 96.7251 22.3511 97.3852 22.0799C98.0453 21.8059 98.7418 21.6689 99.469 21.6689C100.196 21.6689 100.921 21.8059 101.592 22.0799C102.263 22.3539 102.862 22.7482 103.385 23.2627C103.908 23.7799 104.308 24.3671 104.585 25.027C104.862 25.6869 105.002 26.3803 105.002 27.1101C105.002 27.8398 104.865 28.5305 104.593 29.1876C104.322 29.8446 103.925 30.4262 103.41 30.9351C102.879 31.4664 102.274 31.8746 101.595 32.1598C100.915 32.445 100.207 32.5876 99.4718 32.5876H99.469ZM99.5138 31.279C100.621 31.279 101.561 30.8792 102.333 30.0795C103.102 29.2798 103.488 28.2984 103.488 27.138C103.488 25.9777 103.105 24.9767 102.339 24.1798C101.572 23.3829 100.63 22.9858 99.5138 22.9858C98.3977 22.9858 97.4691 23.3829 96.7027 24.1798C95.9363 24.9767 95.5531 25.9637 95.5531 27.138C95.5531 28.3124 95.9363 29.2798 96.7027 30.0795C97.4691 30.8792 98.4061 31.279 99.5138 31.279Z" fill="#333333"/>
<path d="M109.295 24.0733C109.812 23.201 110.319 22.583 110.817 22.2167C111.314 21.8533 111.893 21.6715 112.554 21.6715C112.752 21.6715 112.951 21.6911 113.152 21.7274C113.354 21.7638 113.552 21.8197 113.751 21.8868L113.295 23.2066C113.144 23.1618 112.984 23.1227 112.822 23.0919C112.66 23.0612 112.5 23.0472 112.349 23.0472C111.507 23.0472 110.789 23.4414 110.193 24.2299C109.597 25.0184 109.298 26.0026 109.298 27.177V32.1401H107.896V22.0434H109.298V24.0706L109.295 24.0733Z" fill="#333333"/>
<path d="M116.777 32.1429H115.331V14.4996H116.777V32.1429Z" fill="#333333"/>
<path d="M128.083 32.143V30.3003C127.747 31.0525 127.283 31.6201 126.682 32.0088C126.083 32.3946 125.375 32.5903 124.564 32.5903C123.115 32.5903 121.946 32.0926 121.062 31.1C120.178 30.1074 119.736 28.7933 119.736 27.1631C119.736 25.533 120.173 24.2272 121.045 23.2067C121.918 22.1861 123.045 21.6744 124.427 21.6744C125.286 21.6744 126.024 21.8618 126.642 22.2392C127.261 22.6139 127.742 23.1675 128.083 23.8945V14.5052H129.507V32.1486H128.083V32.143ZM121.297 27.2023C121.297 28.5081 121.591 29.5118 122.181 30.2193C122.768 30.9239 123.61 31.279 124.704 31.279C125.798 31.279 126.589 30.8931 127.199 30.1242C127.806 29.3553 128.111 28.2928 128.111 26.9422C128.111 25.7064 127.812 24.7333 127.213 24.0231C126.614 23.3129 125.786 22.9578 124.729 22.9578C123.672 22.9578 122.838 23.3353 122.223 24.0902C121.608 24.8452 121.3 25.8825 121.3 27.2023H121.297Z" fill="#333333"/>
<path d="M56.9172 39.3429V35.9149H57.3256V39.3429H56.9172Z" fill="#333333"/>
<path d="M58.1562 39.3431V35.7781L60.6652 38.5182V35.9151H61.054V39.4773L58.545 36.7679V39.3431H58.1562Z" fill="#333333"/>
<path d="M63.121 37.4388C63.3448 37.5339 63.5126 37.6597 63.6245 37.8191C63.7364 37.9756 63.7951 38.163 63.7951 38.3783C63.7951 38.6942 63.6944 38.9487 63.493 39.1416C63.2916 39.3345 63.0259 39.4296 62.6959 39.4296C62.4246 39.4296 62.198 39.3597 62.0162 39.2227C61.8344 39.0857 61.7113 38.8872 61.647 38.6327L62.0162 38.451C62.0665 38.6579 62.1476 38.8173 62.2623 38.9235C62.377 39.0298 62.5225 39.0829 62.6959 39.0829C62.9001 39.0829 63.0651 39.0242 63.1937 38.9067C63.3196 38.7893 63.3839 38.6355 63.3839 38.4454C63.3839 38.2916 63.3392 38.1602 63.2525 38.0455C63.163 37.9337 63.0315 37.8358 62.8525 37.7575L62.4357 37.5786C62.2092 37.4835 62.0386 37.3605 61.9267 37.2095C61.8148 37.0585 61.7589 36.8796 61.7589 36.6699C61.7589 36.4266 61.8484 36.2253 62.0302 36.0659C62.212 35.9065 62.4413 35.8282 62.7238 35.8282C62.9308 35.8282 63.107 35.873 63.2581 35.9597C63.4091 36.0463 63.5266 36.175 63.6105 36.3455L63.2721 36.5608C63.1965 36.4294 63.1098 36.3288 63.0147 36.2644C62.9196 36.2001 62.8105 36.1666 62.6903 36.1666C62.5364 36.1666 62.4106 36.2141 62.3155 36.3064C62.2176 36.3987 62.17 36.5189 62.17 36.6643C62.17 36.7873 62.2064 36.8908 62.2819 36.9802C62.3574 37.0697 62.4721 37.148 62.6315 37.2179L63.121 37.4332V37.4388Z" fill="#333333"/>
<path d="M64.3435 39.3429V35.9149H64.7519V39.3429H64.3435Z" fill="#333333"/>
<path d="M65.5798 39.3429V35.9149H66.2371C66.7238 35.9149 67.0679 35.9401 67.2665 35.9876C67.4651 36.0379 67.6413 36.119 67.7895 36.2337C67.9853 36.3847 68.1363 36.5776 68.237 36.8153C68.3377 37.0529 68.3881 37.3213 68.3881 37.6289C68.3881 37.9365 68.3377 38.2049 68.237 38.4398C68.1363 38.6747 67.9881 38.8676 67.7895 39.0186C67.6385 39.1332 67.4679 39.2171 67.2777 39.2646C67.0875 39.315 66.7882 39.3373 66.3854 39.3373H65.5798V39.3429ZM65.991 38.9599H66.2511C66.6735 38.9599 66.9644 38.9403 67.1266 38.9039C67.2888 38.8676 67.4231 38.8033 67.5322 38.7166C67.672 38.5992 67.7783 38.4482 67.8538 38.2636C67.9266 38.0791 67.9629 37.8666 67.9629 37.6289C67.9629 37.3912 67.9266 37.1787 67.8538 36.9942C67.7811 36.8125 67.6748 36.6615 67.5322 36.544C67.4231 36.4546 67.286 36.3903 67.121 36.3511C66.956 36.312 66.6651 36.2924 66.2511 36.2924H65.991V38.9599Z" fill="#333333"/>
<path d="M69.0593 39.3429V35.9149H70.869V36.2868H69.4677V37.271H70.869V37.6513H69.4677V38.9654H70.869V39.3457H69.0593V39.3429Z" fill="#333333"/>
<path d="M73.5737 39.3429V36.3036H72.6031V35.9149H74.9499V36.3036H73.9849V39.3429H73.5737Z" fill="#333333"/>
<path d="M75.4059 39.3429V35.9149H75.8143V37.2319H77.6379V35.9149H78.0519V39.3429H77.6379V37.6205H75.8143V39.3429H75.4059Z" fill="#333333"/>
<path d="M78.8685 39.3429V35.9149H80.6782V36.2868H79.2769V37.271H80.6782V37.6513H79.2769V38.9654H80.6782V39.3457H78.8685V39.3429Z" fill="#333333"/>
<path d="M82.3397 35.9151H82.7789L83.6487 38.4372L84.555 35.7781L85.4724 38.4372L86.3451 35.9151H86.7842L85.4556 39.4773L84.5578 36.8266L83.6655 39.4773L82.3369 35.9151H82.3397Z" fill="#333333"/>
<path d="M90.6721 37.6346C90.6721 37.8807 90.6273 38.11 90.535 38.328C90.4455 38.5461 90.3113 38.7391 90.1378 38.9068C89.9644 39.0746 89.7658 39.206 89.5393 39.2955C89.3127 39.3878 89.0805 39.4325 88.8372 39.4325C88.5939 39.4325 88.3617 39.3878 88.1379 39.2955C87.9142 39.2032 87.7156 39.0746 87.5422 38.9068C87.366 38.7363 87.2345 38.5433 87.1422 38.3253C87.0499 38.1072 87.0051 37.8779 87.0051 37.6346C87.0051 37.3914 87.0499 37.1593 87.1422 36.9412C87.2345 36.7231 87.366 36.5302 87.5422 36.3596C87.7128 36.1918 87.9114 36.0632 88.1379 35.9737C88.3617 35.8843 88.5967 35.8367 88.84 35.8367C89.0833 35.8367 89.3183 35.8815 89.5449 35.9737C89.7714 36.0632 89.97 36.1918 90.1406 36.3596C90.3141 36.5274 90.4455 36.7203 90.5378 36.9384C90.6273 37.1565 90.6749 37.3886 90.6749 37.6346H90.6721ZM88.84 39.0494C89.0274 39.0494 89.2064 39.0131 89.3742 38.9432C89.5449 38.8733 89.6959 38.7698 89.833 38.6328C89.9672 38.4986 90.0707 38.3476 90.1406 38.1771C90.2106 38.0065 90.2469 37.8275 90.2469 37.6374C90.2469 37.4473 90.2106 37.2627 90.1406 37.0894C90.0707 36.916 89.9672 36.7622 89.8358 36.6308C89.7043 36.4994 89.5505 36.3932 89.3798 36.3233C89.2092 36.2533 89.0302 36.217 88.8428 36.217C88.6554 36.217 88.4708 36.2533 88.3002 36.3233C88.1295 36.3932 87.9785 36.4966 87.847 36.6308C87.7128 36.7678 87.6093 36.9216 87.5394 37.0922C87.4694 37.2627 87.4331 37.4473 87.4331 37.6374C87.4331 37.8275 87.4666 38.0065 87.5366 38.1771C87.6065 38.3448 87.71 38.4986 87.8442 38.6356C87.9813 38.7726 88.1351 38.8761 88.303 38.946C88.4708 39.0159 88.6498 39.0522 88.84 39.0522V39.0494Z" fill="#333333"/>
<path d="M91.3379 39.3429V35.9149H92.1434C92.3728 35.9149 92.5406 35.9289 92.6497 35.9541C92.756 35.9792 92.8511 36.024 92.9322 36.0855C93.0329 36.1638 93.1112 36.2728 93.17 36.4042C93.2259 36.5384 93.2539 36.6866 93.2539 36.8488C93.2539 37.1284 93.1756 37.3437 93.0189 37.4891C92.8623 37.6345 92.6329 37.7072 92.328 37.7072H92.2553L93.5643 39.3429H93.0469L91.7966 37.7072H91.7379V39.3429H91.3407H91.3379ZM91.7351 36.2588V37.4052H92.0455C92.3644 37.4052 92.577 37.3633 92.6861 37.2822C92.7952 37.2011 92.8483 37.0557 92.8483 36.8516C92.8483 36.6307 92.7924 36.4769 92.6833 36.3903C92.5714 36.3036 92.3616 36.2588 92.0483 36.2588H91.7379H91.7351Z" fill="#333333"/>
<path d="M93.9055 39.3429V35.9149H94.3139V38.9543H95.6089V39.3429H93.9055Z" fill="#333333"/>
<path d="M96.0928 39.3429V35.9149H96.7501C97.2368 35.9149 97.5808 35.9401 97.7794 35.9876C97.978 36.0379 98.1542 36.119 98.3024 36.2337C98.4982 36.3847 98.6493 36.5776 98.75 36.8153C98.8507 37.0529 98.901 37.3213 98.901 37.6289C98.901 37.9365 98.8507 38.2049 98.75 38.4398C98.6493 38.6747 98.4982 38.8676 98.3024 39.0186C98.1514 39.1332 97.9808 39.2171 97.7906 39.2646C97.6004 39.315 97.3011 39.3373 96.8983 39.3373H96.0928V39.3429ZM96.5039 38.9599H96.7641C97.1864 38.9599 97.4773 38.9403 97.6395 38.9039C97.8018 38.8676 97.936 38.8033 98.0451 38.7166C98.185 38.5992 98.2941 38.4482 98.3668 38.2636C98.4395 38.0791 98.4759 37.8666 98.4759 37.6289C98.4759 37.3912 98.4395 37.1787 98.3668 36.9942C98.2941 36.8125 98.1878 36.6615 98.0451 36.544C97.9388 36.4546 97.8018 36.3903 97.6339 36.3511C97.4689 36.312 97.178 36.2924 96.7641 36.2924H96.5039V38.9599Z" fill="#333333"/>
<path d="M104.495 37.6346C104.495 37.8807 104.45 38.11 104.358 38.328C104.269 38.5461 104.134 38.7391 103.961 38.9068C103.788 39.0746 103.589 39.206 103.362 39.2955C103.136 39.3878 102.904 39.4325 102.66 39.4325C102.417 39.4325 102.185 39.3878 101.961 39.2955C101.737 39.2032 101.539 39.0746 101.365 38.9068C101.189 38.7363 101.058 38.5433 100.965 38.3253C100.873 38.1072 100.828 37.8779 100.828 37.6346C100.828 37.3914 100.873 37.1593 100.965 36.9412C101.058 36.7231 101.189 36.5302 101.365 36.3596C101.536 36.1918 101.734 36.0632 101.961 35.9737C102.185 35.8843 102.42 35.8367 102.663 35.8367C102.906 35.8367 103.141 35.8815 103.368 35.9737C103.595 36.0632 103.793 36.1918 103.964 36.3596C104.137 36.5274 104.269 36.7203 104.361 36.9384C104.45 37.1565 104.498 37.3886 104.498 37.6346H104.495ZM102.663 39.0494C102.851 39.0494 103.03 39.0131 103.197 38.9432C103.368 38.8733 103.519 38.7698 103.656 38.6328C103.79 38.4986 103.894 38.3476 103.964 38.1771C104.034 38.0065 104.07 37.8275 104.07 37.6374C104.07 37.4473 104.034 37.2627 103.964 37.0894C103.894 36.916 103.79 36.7622 103.659 36.6308C103.527 36.4994 103.374 36.3932 103.203 36.3233C103.032 36.2533 102.853 36.217 102.666 36.217C102.479 36.217 102.294 36.2533 102.123 36.3233C101.953 36.3932 101.802 36.4966 101.67 36.6308C101.536 36.7678 101.432 36.9216 101.362 37.0922C101.293 37.2627 101.256 37.4473 101.256 37.6374C101.256 37.8275 101.29 38.0065 101.36 38.1771C101.43 38.3448 101.533 38.4986 101.667 38.6356C101.804 38.7726 101.958 38.8761 102.126 38.946C102.294 39.0159 102.473 39.0522 102.663 39.0522V39.0494Z" fill="#333333"/>
<path d="M105.161 39.3429V35.9149H106.971V36.2868H105.569V37.271H106.971V37.6513H105.569V39.3457H105.161V39.3429Z" fill="#333333"/>
<path d="M109.007 39.3429V35.9149H109.812C110.042 35.9149 110.21 35.9289 110.319 35.9541C110.425 35.9792 110.52 36.024 110.601 36.0855C110.702 36.1638 110.78 36.2728 110.839 36.4042C110.895 36.5384 110.923 36.6866 110.923 36.8488C110.923 37.1284 110.845 37.3437 110.688 37.4891C110.531 37.6345 110.302 37.7072 109.997 37.7072H109.924L111.233 39.3429H110.716L109.466 37.7072H109.407V39.3429H109.01H109.007ZM109.404 36.2588V37.4052H109.714C110.033 37.4052 110.246 37.3633 110.355 37.2822C110.464 37.2011 110.517 37.0557 110.517 36.8516C110.517 36.6307 110.461 36.4769 110.352 36.3903C110.24 36.3036 110.031 36.2588 109.717 36.2588H109.407H109.404Z" fill="#333333"/>
<path d="M111.575 39.3429V35.9149H113.384V36.2868H111.983V37.271H113.384V37.6513H111.983V38.9654H113.384V39.3457H111.575V39.3429Z" fill="#333333"/>
<path d="M114.075 39.3429V35.9149H114.483V38.9543H115.778V39.3429H114.075Z" fill="#333333"/>
<path d="M116.268 39.3429V35.9149H116.676V39.3429H116.268Z" fill="#333333"/>
<path d="M118.59 35.7781L120.15 39.3431H119.708L119.264 38.2918H117.924L117.479 39.3431H117.037L118.592 35.7781H118.59ZM118.59 36.6812L118.044 37.9422H119.135L118.59 36.6812Z" fill="#333333"/>
<path d="M120.503 39.3431V35.7781L123.012 38.5182V35.9151H123.401V39.4773L120.892 36.7679V39.3431H120.503Z" fill="#333333"/>
<path d="M127.003 36.7342C126.838 36.5552 126.665 36.4238 126.477 36.3399C126.29 36.256 126.086 36.2113 125.862 36.2113C125.68 36.2113 125.504 36.2476 125.331 36.3203C125.157 36.393 125.009 36.4965 124.883 36.6279C124.752 36.7649 124.654 36.9159 124.589 37.0837C124.525 37.2514 124.491 37.436 124.491 37.6401C124.491 37.7995 124.511 37.9449 124.55 38.0791C124.589 38.2133 124.648 38.3363 124.726 38.4482C124.863 38.6439 125.034 38.7949 125.233 38.8983C125.434 39.0046 125.649 39.0577 125.882 39.0577C126.1 39.0577 126.304 39.013 126.491 38.9207C126.679 38.8312 126.849 38.6942 127.003 38.5153V39.0549C126.833 39.1779 126.651 39.2702 126.455 39.3345C126.259 39.3988 126.055 39.4296 125.848 39.4296C125.666 39.4296 125.49 39.4016 125.319 39.3485C125.149 39.2954 124.986 39.2171 124.835 39.1136C124.587 38.9403 124.394 38.7278 124.262 38.4733C124.131 38.2217 124.063 37.9421 124.063 37.6401C124.063 37.3773 124.108 37.1368 124.195 36.9187C124.284 36.7034 124.419 36.5049 124.601 36.3287C124.777 36.161 124.97 36.0351 125.182 35.9513C125.395 35.8674 125.627 35.8254 125.879 35.8254C126.077 35.8254 126.27 35.8562 126.455 35.9149C126.64 35.9736 126.824 36.0687 127.006 36.1945V36.7258L127.003 36.7342Z" fill="#333333"/>
<path d="M127.7 39.3429V35.9149H129.509V36.2868H128.108V37.271H129.509V37.6513H128.108V38.9654H129.509V39.3457H127.7V39.3429Z" fill="#333333"/>
</svg>
