<svg width="130" height="54" viewBox="0 0 130 54" fill="none" xmlns="http://www.w3.org/2000/svg">
<path fill-rule="evenodd" clip-rule="evenodd" d="M20.6759 22.651C22.6478 22.651 24.5386 22.9977 26.2868 23.6296L26.2476 23.624C25.0868 23.2913 23.8589 23.1151 22.5918 23.1151C15.2104 23.1151 9.22749 29.096 9.22749 36.4748C9.22749 40.0818 10.6624 43.3588 12.9867 45.7634C13.0399 45.8082 13.0846 45.8613 13.1378 45.9144L13.1434 45.92C13.1434 45.92 13.0259 45.8361 12.8301 45.6852C5.2333 42.0838 0 34.5288 0 25.7938C0 25.05 0.039159 24.3119 0.111882 23.5877C0.928623 27.5609 2.69077 31.056 5.36476 33.7319C7.30312 27.326 13.4231 22.6482 20.6759 22.6482V22.651ZM5.09904 23.0956C6.54232 23.0956 7.70869 24.2643 7.70869 25.7043C7.70869 27.1443 6.53952 28.3215 5.09904 28.3215C3.65855 28.3215 2.48099 27.1471 2.48099 25.7043C2.48099 24.2615 3.65016 23.0956 5.09904 23.0956Z" fill="white"/>
<path fill-rule="evenodd" clip-rule="evenodd" d="M24.0437 20.2938C21.7278 20.2938 19.5069 20.7048 17.4595 21.4486L17.5042 21.4346C18.8692 21.0488 20.3041 20.8419 21.7921 20.8419C30.4518 20.8419 37.4668 27.8544 37.4668 36.5111C37.4668 40.7444 35.7886 44.5862 33.0559 47.4047C33.0027 47.4634 32.944 47.5221 32.8852 47.5808L32.8797 47.5864C32.8797 47.5864 33.0167 47.4886 33.2461 47.3124C42.1547 43.0903 48.2886 34.2323 48.2886 23.9847C48.2886 23.1095 48.2439 22.2483 48.1572 21.4011C47.2034 26.0594 45.1364 30.1556 41.9981 33.3012C39.7269 25.7853 32.5496 20.2938 24.0465 20.2938H24.0437ZM42.3169 20.8167C40.6275 20.8167 39.2486 22.1868 39.2486 23.884C39.2486 25.5812 40.6247 26.9513 42.3169 26.9513C44.0091 26.9513 45.3853 25.5756 45.3853 23.884C45.3853 22.1924 44.0091 20.8167 42.3169 20.8167Z" fill="white"/>
<path fill-rule="evenodd" clip-rule="evenodd" d="M15.5488 31.8167C13.6692 31.8167 11.8679 32.1494 10.2036 32.7561L10.2372 32.7422C11.3476 32.429 12.514 32.2584 13.7223 32.2584C20.7513 32.2584 26.4545 37.9541 26.4545 44.9862C26.4545 48.4254 25.0896 51.543 22.8715 53.833C22.8267 53.8862 22.7792 53.9309 22.7288 53.9756V53.9812H22.7232C22.7232 53.9812 22.8351 53.9029 23.0225 53.7603C30.2585 50.3295 35.2457 43.1324 35.2457 34.8169C35.2457 34.1066 35.2065 33.4076 35.1338 32.717C34.3646 36.5001 32.6808 39.8274 30.1355 42.3775C28.2894 36.2792 22.4547 31.8167 15.5488 31.8167ZM30.39 32.2417C29.0138 32.2417 27.9034 33.3573 27.9034 34.7274C27.9034 36.0975 29.0138 37.2187 30.39 37.2187C31.7661 37.2187 32.8822 36.1031 32.8822 34.7274C32.8822 33.3517 31.7661 32.2417 30.39 32.2417Z" fill="white"/>
<path fill-rule="evenodd" clip-rule="evenodd" d="M47.9358 18.9826C45.5332 8.16178 35.8302 0 24.3119 0C12.0636 0 1.86269 9.22429 0.315918 21.0657L0.76065 23.2383C1.57459 10.9802 11.8538 1.20791 24.3119 1.20791C35.9225 1.20791 45.645 9.70242 47.5638 20.7861L47.9358 18.9854V18.9826Z" fill="white"/>
<path d="M67.0402 32.1465H65.1969L59.3455 24.2H58.4336V32.1465H56.9204V15.4818H59.9832C61.7901 15.4818 63.1439 15.8565 64.0417 16.6086C64.9396 17.3608 65.3899 18.4988 65.3899 20.0227C65.3899 21.32 65.0039 22.3406 64.2347 23.0844C63.4655 23.8281 62.4026 24.2 61.0517 24.2L67.0402 32.1465ZM58.4308 16.8016V22.9585H59.958C61.3705 22.9585 62.3551 22.7321 62.9117 22.2819C63.4711 21.8317 63.748 21.0628 63.748 19.9779C63.748 18.8315 63.4599 18.0151 62.8837 17.5313C62.3075 17.0448 61.3314 16.8016 59.958 16.8016H58.4308Z" fill="white"/>
<path d="M68.0889 26.3865H73.0536V27.8549H68.0889V26.3865Z" fill="white"/>
<path d="M79.3836 32.7953L73.6328 15.4819H75.2159L79.3836 28.7885L83.8253 14.822L88.4376 28.6738L92.4458 15.4819H94.0178L88.4376 32.7953L83.8253 18.6471L79.3836 32.7953Z" fill="white"/>
<path d="M99.4691 32.5912C98.7475 32.5912 98.0566 32.4486 97.3965 32.1634C96.7364 31.8782 96.1378 31.47 95.598 30.9387C95.0889 30.4382 94.7029 29.8622 94.4372 29.2079C94.1715 28.5565 94.04 27.8574 94.04 27.1137C94.04 26.3699 94.1771 25.6793 94.4484 25.0194C94.7197 24.3595 95.1141 23.7751 95.6204 23.2663C96.1378 22.7518 96.7252 22.3547 97.3853 22.0835C98.0454 21.8095 98.7419 21.6725 99.4691 21.6725C100.196 21.6725 100.921 21.8095 101.592 22.0835C102.263 22.3575 102.862 22.7518 103.385 23.2663C103.908 23.7835 104.308 24.3707 104.585 25.0306C104.862 25.6905 105.002 26.3839 105.002 27.1137C105.002 27.8435 104.865 28.5341 104.593 29.1912C104.322 29.8482 103.925 30.4298 103.41 30.9387C102.879 31.47 102.275 31.8782 101.595 32.1634C100.915 32.4486 100.208 32.5912 99.4719 32.5912H99.4691ZM99.5139 31.2826C100.622 31.2826 101.561 30.8828 102.333 30.0831C103.103 29.2834 103.489 28.302 103.489 27.1416C103.489 25.9813 103.105 24.9803 102.339 24.1834C101.573 23.3865 100.63 22.9894 99.5139 22.9894C98.3978 22.9894 97.4692 23.3865 96.7028 24.1834C95.9364 24.9803 95.5532 25.9673 95.5532 27.1416C95.5532 28.316 95.9364 29.2834 96.7028 30.0831C97.4692 30.8828 98.4062 31.2826 99.5139 31.2826Z" fill="white"/>
<path d="M109.295 24.0769C109.812 23.2045 110.319 22.5866 110.817 22.2203C111.314 21.8568 111.893 21.675 112.554 21.675C112.752 21.675 112.951 21.6946 113.152 21.731C113.354 21.7673 113.552 21.8232 113.751 21.8903L113.295 23.2101C113.144 23.1654 112.984 23.1262 112.822 23.0955C112.66 23.0647 112.5 23.0507 112.349 23.0507C111.507 23.0507 110.789 23.445 110.193 24.2335C109.597 25.022 109.298 26.0062 109.298 27.1805V32.1436H107.896V22.0469H109.298V24.0741L109.295 24.0769Z" fill="white"/>
<path d="M116.777 32.1465H115.331V14.5032H116.777V32.1465Z" fill="white"/>
<path d="M128.083 32.1465V30.3039C127.748 31.056 127.283 31.6236 126.682 32.0123C126.083 32.3982 125.376 32.5939 124.565 32.5939C123.116 32.5939 121.946 32.0962 121.063 31.1036C120.179 30.111 119.737 28.7968 119.737 27.1667C119.737 25.5366 120.173 24.2308 121.046 23.2102C121.919 22.1896 123.046 21.678 124.427 21.678C125.286 21.678 126.025 21.8653 126.643 22.2428C127.261 22.6174 127.742 23.1711 128.083 23.8981V14.5088H129.507V32.1521H128.083V32.1465ZM121.298 27.2058C121.298 28.5116 121.591 29.5154 122.181 30.2228C122.769 30.9274 123.611 31.2825 124.704 31.2825C125.798 31.2825 126.59 30.8967 127.199 30.1277C127.806 29.3588 128.111 28.2963 128.111 26.9458C128.111 25.7099 127.812 24.7369 127.213 24.0267C126.615 23.3165 125.787 22.9614 124.73 22.9614C123.672 22.9614 122.839 23.3388 122.223 24.0938C121.608 24.8487 121.3 25.8861 121.3 27.2058H121.298Z" fill="white"/>
<path d="M56.9175 39.3465V35.9185H57.3259V39.3465H56.9175Z" fill="white"/>
<path d="M58.1567 39.3465V35.7815L60.6657 38.5217V35.9185H61.0545V39.4807L58.5455 36.7713V39.3465H58.1567Z" fill="white"/>
<path d="M63.1215 37.4422C63.3453 37.5373 63.5131 37.6631 63.625 37.8225C63.7369 37.9791 63.7956 38.1664 63.7956 38.3817C63.7956 38.6977 63.6949 38.9521 63.4935 39.145C63.2921 39.338 63.0264 39.433 62.6964 39.433C62.425 39.433 62.1985 39.3631 62.0167 39.2261C61.8349 39.0891 61.7118 38.8906 61.6475 38.6361L62.0167 38.4544C62.067 38.6613 62.1481 38.8207 62.2628 38.9269C62.3775 39.0332 62.5229 39.0863 62.6964 39.0863C62.9005 39.0863 63.0656 39.0276 63.1942 38.9102C63.3201 38.7927 63.3844 38.6389 63.3844 38.4488C63.3844 38.295 63.3397 38.1636 63.253 38.049C63.1635 37.9371 63.032 37.8393 62.853 37.761L62.4362 37.582C62.2097 37.487 62.039 37.3639 61.9272 37.2129C61.8153 37.0619 61.7593 36.883 61.7593 36.6733C61.7593 36.43 61.8488 36.2287 62.0307 36.0693C62.2125 35.91 62.4418 35.8317 62.7243 35.8317C62.9313 35.8317 63.1075 35.8764 63.2586 35.9631C63.4096 36.0498 63.5271 36.1784 63.611 36.3489L63.2726 36.5642C63.197 36.4328 63.1103 36.3322 63.0152 36.2679C62.9201 36.2035 62.811 36.17 62.6908 36.17C62.5369 36.17 62.4111 36.2175 62.316 36.3098C62.2181 36.4021 62.1705 36.5223 62.1705 36.6677C62.1705 36.7907 62.2069 36.8942 62.2824 36.9837C62.3579 37.0731 62.4726 37.1514 62.632 37.2213L63.1215 37.4366V37.4422Z" fill="white"/>
<path d="M64.3438 39.3465V35.9185H64.7521V39.3465H64.3438Z" fill="white"/>
<path d="M65.5801 39.3465V35.9185H66.2374C66.7241 35.9185 67.0681 35.9436 67.2667 35.9912C67.4653 36.0415 67.6415 36.1226 67.7898 36.2372C67.9856 36.3882 68.1366 36.5811 68.2373 36.8188C68.338 37.0565 68.3883 37.3249 68.3883 37.6325C68.3883 37.94 68.338 38.2085 68.2373 38.4433C68.1366 38.6782 67.9883 38.8711 67.7898 39.0221C67.6387 39.1368 67.4681 39.2206 67.2779 39.2682C67.0877 39.3185 66.7884 39.3409 66.3856 39.3409H65.5801V39.3465ZM65.9912 38.9634H66.2514C66.6737 38.9634 66.9646 38.9438 67.1269 38.9075C67.2891 38.8711 67.4233 38.8068 67.5324 38.7201C67.6723 38.6027 67.7786 38.4517 67.8541 38.2672C67.9268 38.0826 67.9632 37.8701 67.9632 37.6325C67.9632 37.3948 67.9268 37.1823 67.8541 36.9977C67.7814 36.816 67.6751 36.665 67.5324 36.5476C67.4233 36.4581 67.2863 36.3938 67.1213 36.3546C66.9562 36.3155 66.6653 36.2959 66.2514 36.2959H65.9912V38.9634Z" fill="white"/>
<path d="M69.0596 39.3465V35.9185H70.8693V36.2903H69.4679V37.2746H70.8693V37.6548H69.4679V38.969H70.8693V39.3493H69.0596V39.3465Z" fill="white"/>
<path d="M73.5741 39.3465V36.3071H72.6035V35.9185H74.9503V36.3071H73.9853V39.3465H73.5741Z" fill="white"/>
<path d="M75.4062 39.3465V35.9185H75.8146V37.2354H77.6383V35.9185H78.0523V39.3465H77.6383V37.6241H75.8146V39.3465H75.4062Z" fill="white"/>
<path d="M78.8687 39.3465V35.9185H80.6783V36.2903H79.277V37.2746H80.6783V37.6548H79.277V38.969H80.6783V39.3493H78.8687V39.3465Z" fill="white"/>
<path d="M82.3397 35.9185H82.7789L83.6487 38.4406L84.555 35.7815L85.4724 38.4406L86.3451 35.9185H86.7842L85.4556 39.4807L84.5578 36.83L83.6655 39.4807L82.3369 35.9185H82.3397Z" fill="white"/>
<path d="M90.6723 37.6381C90.6723 37.8842 90.6276 38.1134 90.5353 38.3315C90.4458 38.5496 90.3115 38.7426 90.1381 38.9103C89.9647 39.0781 89.7661 39.2095 89.5395 39.299C89.3129 39.3912 89.0808 39.436 88.8374 39.436C88.5941 39.436 88.3619 39.3912 88.1382 39.299C87.9144 39.2067 87.7158 39.0781 87.5424 38.9103C87.3662 38.7398 87.2347 38.5468 87.1424 38.3287C87.0501 38.1106 87.0054 37.8814 87.0054 37.6381C87.0054 37.3948 87.0501 37.1628 87.1424 36.9447C87.2347 36.7266 87.3662 36.5336 87.5424 36.3631C87.713 36.1953 87.9116 36.0667 88.1382 35.9772C88.3619 35.8877 88.5969 35.8402 88.8402 35.8402C89.0836 35.8402 89.3185 35.8849 89.5451 35.9772C89.7717 36.0667 89.9703 36.1953 90.1409 36.3631C90.3143 36.5308 90.4458 36.7238 90.5381 36.9419C90.6276 37.16 90.6751 37.392 90.6751 37.6381H90.6723ZM88.8402 39.0529C89.0276 39.0529 89.2067 39.0166 89.3745 38.9467C89.5451 38.8768 89.6961 38.7733 89.8332 38.6363C89.9675 38.5021 90.071 38.3511 90.1409 38.1805C90.2108 38.01 90.2472 37.831 90.2472 37.6409C90.2472 37.4508 90.2108 37.2662 90.1409 37.0929C90.071 36.9195 89.9675 36.7657 89.836 36.6343C89.7045 36.5029 89.5507 36.3966 89.3801 36.3267C89.2095 36.2568 89.0304 36.2205 88.843 36.2205C88.6556 36.2205 88.471 36.2568 88.3004 36.3267C88.1298 36.3966 87.9787 36.5001 87.8473 36.6343C87.713 36.7713 87.6095 36.9251 87.5396 37.0957C87.4697 37.2662 87.4333 37.4508 87.4333 37.6409C87.4333 37.831 87.4669 38.01 87.5368 38.1805C87.6067 38.3483 87.7102 38.5021 87.8445 38.6391C87.9815 38.7761 88.1354 38.8796 88.3032 38.9495C88.471 39.0194 88.65 39.0557 88.8402 39.0557V39.0529Z" fill="white"/>
<path d="M91.3379 39.3465V35.9185H92.1434C92.3728 35.9185 92.5406 35.9324 92.6497 35.9576C92.756 35.9828 92.8511 36.0275 92.9322 36.089C93.0329 36.1673 93.1112 36.2764 93.17 36.4078C93.2259 36.542 93.2539 36.6902 93.2539 36.8523C93.2539 37.132 93.1756 37.3473 93.0189 37.4927C92.8623 37.638 92.6329 37.7107 92.328 37.7107H92.2553L93.5643 39.3465H93.0469L91.7966 37.7107H91.7379V39.3465H91.3407H91.3379ZM91.7351 36.2624V37.4088H92.0455C92.3644 37.4088 92.577 37.3668 92.6861 37.2857C92.7952 37.2047 92.8483 37.0593 92.8483 36.8551C92.8483 36.6343 92.7924 36.4805 92.6833 36.3938C92.5714 36.3071 92.3616 36.2624 92.0483 36.2624H91.7379H91.7351Z" fill="white"/>
<path d="M93.9058 39.3465V35.9185H94.3141V38.9578H95.6092V39.3465H93.9058Z" fill="white"/>
<path d="M96.0933 39.3465V35.9185H96.7506C97.2373 35.9185 97.5813 35.9436 97.7799 35.9912C97.9785 36.0415 98.1547 36.1226 98.3029 36.2372C98.4987 36.3882 98.6498 36.5811 98.7505 36.8188C98.8512 37.0565 98.9015 37.3249 98.9015 37.6325C98.9015 37.94 98.8512 38.2085 98.7505 38.4433C98.6498 38.6782 98.4987 38.8711 98.3029 39.0221C98.1519 39.1368 97.9813 39.2206 97.7911 39.2682C97.6009 39.3185 97.3016 39.3409 96.8988 39.3409H96.0933V39.3465ZM96.5044 38.9634H96.7646C97.1869 38.9634 97.4778 38.9438 97.64 38.9075C97.8023 38.8711 97.9365 38.8068 98.0456 38.7201C98.1855 38.6027 98.2945 38.4517 98.3673 38.2672C98.44 38.0826 98.4764 37.8701 98.4764 37.6325C98.4764 37.3948 98.44 37.1823 98.3673 36.9977C98.2945 36.816 98.1883 36.665 98.0456 36.5476C97.9393 36.4581 97.8023 36.3938 97.6344 36.3546C97.4694 36.3155 97.1785 36.2959 96.7646 36.2959H96.5044V38.9634Z" fill="white"/>
<path d="M104.496 37.6381C104.496 37.8842 104.451 38.1134 104.358 38.3315C104.269 38.5496 104.135 38.7426 103.961 38.9103C103.788 39.0781 103.589 39.2095 103.363 39.299C103.136 39.3912 102.904 39.436 102.661 39.436C102.417 39.436 102.185 39.3912 101.961 39.299C101.738 39.2067 101.539 39.0781 101.366 38.9103C101.189 38.7398 101.058 38.5468 100.966 38.3287C100.873 38.1106 100.829 37.8814 100.829 37.6381C100.829 37.3948 100.873 37.1628 100.966 36.9447C101.058 36.7266 101.189 36.5336 101.366 36.3631C101.536 36.1953 101.735 36.0667 101.961 35.9772C102.185 35.8877 102.42 35.8402 102.663 35.8402C102.907 35.8402 103.142 35.8849 103.368 35.9772C103.595 36.0667 103.793 36.1953 103.964 36.3631C104.138 36.5308 104.269 36.7238 104.361 36.9419C104.451 37.16 104.498 37.392 104.498 37.6381H104.496ZM102.663 39.0529C102.851 39.0529 103.03 39.0166 103.198 38.9467C103.368 38.8768 103.519 38.7733 103.656 38.6363C103.791 38.5021 103.894 38.3511 103.964 38.1805C104.034 38.01 104.07 37.831 104.07 37.6409C104.07 37.4508 104.034 37.2662 103.964 37.0929C103.894 36.9195 103.791 36.7657 103.659 36.6343C103.528 36.5029 103.374 36.3966 103.203 36.3267C103.033 36.2568 102.854 36.2205 102.666 36.2205C102.479 36.2205 102.294 36.2568 102.124 36.3267C101.953 36.3966 101.802 36.5001 101.671 36.6343C101.536 36.7713 101.433 36.9251 101.363 37.0957C101.293 37.2662 101.257 37.4508 101.257 37.6409C101.257 37.831 101.29 38.01 101.36 38.1805C101.43 38.3483 101.533 38.5021 101.668 38.6391C101.805 38.7761 101.959 38.8796 102.126 38.9495C102.294 39.0194 102.473 39.0557 102.663 39.0557V39.0529Z" fill="white"/>
<path d="M105.161 39.3465V35.9185H106.971V36.2903H105.57V37.2746H106.971V37.6548H105.57V39.3493H105.161V39.3465Z" fill="white"/>
<path d="M109.007 39.3465V35.9185H109.812C110.042 35.9185 110.21 35.9324 110.319 35.9576C110.425 35.9828 110.52 36.0275 110.601 36.089C110.702 36.1673 110.78 36.2764 110.839 36.4078C110.895 36.542 110.923 36.6902 110.923 36.8523C110.923 37.132 110.845 37.3473 110.688 37.4927C110.531 37.638 110.302 37.7107 109.997 37.7107H109.924L111.233 39.3465H110.716L109.466 37.7107H109.407V39.3465H109.01H109.007ZM109.404 36.2624V37.4088H109.714C110.033 37.4088 110.246 37.3668 110.355 37.2857C110.464 37.2047 110.517 37.0593 110.517 36.8551C110.517 36.6343 110.461 36.4805 110.352 36.3938C110.24 36.3071 110.031 36.2624 109.717 36.2624H109.407H109.404Z" fill="white"/>
<path d="M111.575 39.3465V35.9185H113.384V36.2903H111.983V37.2746H113.384V37.6548H111.983V38.969H113.384V39.3493H111.575V39.3465Z" fill="white"/>
<path d="M114.075 39.3465V35.9185H114.484V38.9578H115.779V39.3465H114.075Z" fill="white"/>
<path d="M116.268 39.3465V35.9185H116.676V39.3465H116.268Z" fill="white"/>
<path d="M118.59 35.7815L120.151 39.3465H119.709L119.264 38.2952H117.924L117.48 39.3465H117.038L118.593 35.7815H118.59ZM118.59 36.6846L118.045 37.9457H119.135L118.59 36.6846Z" fill="white"/>
<path d="M120.503 39.3465V35.7815L123.012 38.5217V35.9185H123.401V39.4807L120.892 36.7713V39.3465H120.503Z" fill="white"/>
<path d="M127.003 36.7377C126.838 36.5588 126.665 36.4273 126.477 36.3435C126.29 36.2596 126.086 36.2148 125.862 36.2148C125.68 36.2148 125.504 36.2512 125.331 36.3239C125.157 36.3966 125.009 36.5 124.883 36.6315C124.752 36.7685 124.654 36.9195 124.589 37.0872C124.525 37.255 124.491 37.4395 124.491 37.6436C124.491 37.803 124.511 37.9484 124.55 38.0826C124.589 38.2168 124.648 38.3399 124.726 38.4517C124.863 38.6474 125.034 38.7984 125.233 38.9019C125.434 39.0081 125.649 39.0613 125.882 39.0613C126.1 39.0613 126.304 39.0165 126.491 38.9243C126.679 38.8348 126.849 38.6978 127.003 38.5188V39.0585C126.833 39.1815 126.651 39.2738 126.455 39.3381C126.259 39.4024 126.055 39.4331 125.848 39.4331C125.666 39.4331 125.49 39.4052 125.319 39.3521C125.149 39.2989 124.986 39.2206 124.835 39.1172C124.587 38.9438 124.394 38.7313 124.262 38.4769C124.131 38.2252 124.063 37.9456 124.063 37.6436C124.063 37.3808 124.108 37.1403 124.195 36.9223C124.284 36.707 124.419 36.5084 124.601 36.3323C124.777 36.1645 124.97 36.0387 125.182 35.9548C125.395 35.8709 125.627 35.829 125.879 35.829C126.077 35.829 126.27 35.8597 126.455 35.9185C126.64 35.9772 126.824 36.0722 127.006 36.1981V36.7293L127.003 36.7377Z" fill="white"/>
<path d="M127.7 39.3465V35.9185H129.509V36.2903H128.108V37.2746H129.509V37.6548H128.108V38.969H129.509V39.3493H127.7V39.3465Z" fill="white"/>
</svg>
