<svg width="18" height="16" viewBox="0 0 18 16" fill="none" xmlns="http://www.w3.org/2000/svg">
<path d="M13.6512 14.8606C13.0667 15.2787 12.2975 15.3418 11.7019 15.0696C11.7019 15.0696 11.5395 15.0065 11.3881 14.8395C11.2576 14.6824 7.96439 11.0973 7.96439 11.0973L7.95329 11.086C8.97235 11.2642 10.0872 10.7942 10.662 9.93683C11.2354 9.12159 11.2146 7.96116 10.6731 7.14592C10.0234 6.25772 8.75577 5.96445 7.69366 6.10056C5.85268 6.35173 4.53095 7.9303 4.1186 9.58183C3.69514 11.4635 3.9992 13.2399 4.66006 14.9125C4.8114 15.2675 5.01688 15.6337 5.26679 15.9466C3.32723 15.1314 1.61536 13.6272 0.717081 11.6094C-0.279771 9.4359 -0.257558 6.68709 0.92256 4.4813C1.85416 2.77785 3.50077 1.19929 5.53752 0.529974C7.67145 -0.316138 10.5426 -0.139339 12.6224 0.990213C15.1465 2.20255 17.0527 5.22358 17.0638 7.92047C17.1499 10.7114 15.8712 13.2399 13.6512 14.8606Z" fill="#BFA161"/>
<path d="M6.56805 15.9152C5.62535 14.933 4.86729 13.6575 5.44208 12.3301C5.95161 11.3156 6.40561 10.2815 6.6222 9.11121C6.70828 10.3348 7.47883 11.4208 7.84675 12.5925C7.98697 13.1565 7.99808 13.7417 7.77177 14.3268C7.52326 14.9638 7.12201 15.5083 6.64441 15.9994L6.56805 15.9166L6.56805 15.9152Z" fill="#BFA161"/>
</svg>
